Coordinates
version=1
nRows=17
nColumns=24
inDegrees=yes

Units are S.I. units (second, meters, Newtons, ...)
Angles are in degrees.

endheader
time	pelvis_tilt	pelvis_list	pelvis_rotation	pelvis_tx	pelvis_ty	pelvis_tz	hip_flexion_r	hip_adduction_r	hip_rotation_r	knee_angle_r	ankle_angle_r	subtalar_angle_r	mtp_angle_r	hip_flexion_l	hip_adduction_l	hip_rotation_l	knee_angle_l	ankle_angle_l	subtalar_angle_l	mtp_angle_l	lumbar_extension	lumbar_bending	lumbar_rotation
      3.97000000	     -8.20430916	     -9.69533897	      2.15357512	     -0.96368132	     -0.01909527	      0.59700601	     14.88802479	     11.75339948	     -8.43209570	    -13.45984032	      1.01008686	     -3.41723512	      3.93020876	     27.79050108	    -15.86668432	     -6.23755808	    -67.32745668	     -8.00747246	     17.99862173	     24.07922198	      4.72833769	     10.56708920	      0.64061230
      3.97500000	     -8.21436963	     -9.44642396	      1.77190059	     -0.95713920	     -0.01821779	      0.59745621	     14.07447279	     11.66791699	     -7.90704693	    -12.87450416	      1.15464574	     -3.26213898	      3.94629328	     28.51657995	    -15.66273188	     -6.68316650	    -66.93227761	     -7.79476804	     18.44751761	     24.16937913	      4.65124055	     10.37312499	      1.18282122
      3.98000000	     -8.19139417	     -9.20115427	      1.36155837	     -0.95063981	     -0.01738704	      0.59795735	     13.23089425	     11.58820192	     -7.30141040	    -12.29561125	      1.29086480	     -3.17211896	      3.93112640	     29.18236519	    -15.48288929	     -7.16735545	    -66.47501066	     -7.58253207	     18.77125300	     24.14561867	      4.52656826	     10.17742234	      1.76314667
      3.98500000	     -8.20797942	     -8.96006610	      0.98917002	     -0.94411295	     -0.01667220	      0.59842227	     12.45495735	     11.48111600	     -6.84230369	    -11.75152396	      1.42533561	     -3.01323037	      3.92316747	     29.88367656	    -15.28812805	     -7.59064134	    -65.94426778	     -7.34786090	     19.19388132	     24.11256087	      4.46293475	      9.97981079	      2.27757648
      3.99000000	     -8.17898469	     -8.72099961	      0.58132919	     -0.93763271	     -0.01600851	      0.59889905	     11.63188309	     11.37562642	     -6.25315256	    -11.21293939	      1.58203055	     -2.90159618	      3.87799093	     30.50971007	    -15.12094335	     -8.07488347	    -65.36645548	     -7.10797326	     19.43526746	     23.90730241	      4.33324455	      9.79547998	      2.85199141
      3.99500000	     -8.16735563	     -8.48713202	      0.19003077	     -0.93114392	     -0.01543672	      0.59938229	     10.84398346	     11.25776464	     -5.72965920	    -10.69553093	      1.72981976	     -2.77704225	      3.82177739	     31.13916905	    -14.95560549	     -8.52956484	    -64.72040446	     -6.85519259	     19.69968364	     23.65216562	      4.23207580	      9.60755739	      3.38657814
      4.00000000	     -8.17921691	     -8.24290502	     -0.18660058	     -0.92464488	     -0.01495301	      0.59986954	     10.09908113	     11.11191685	     -5.27081295	    -10.20244493	      1.88400222	     -2.62822020	      3.78106674	     31.77197487	    -14.77550307	     -8.96669704	    -63.99566516	     -6.61409861	     19.95156048	     23.40366294	      4.16382474	      9.39950282	      3.87791195
      4.00500000	     -8.16557492	     -8.01001698	     -0.57620048	     -0.91818144	     -0.01453629	      0.60035172	      9.33569326	     10.96766827	     -4.76698371	     -9.72106790	      2.05065063	     -2.48371754	      3.73082085	     32.35809899	    -14.61751449	     -9.41837355	    -63.22137244	     -6.36611806	     20.08620273	     23.04241793	      4.05938502	      9.20734982	      4.39830823
      4.01000000	     -8.14691283	     -7.78751525	     -0.94883950	     -0.91173841	     -0.01420165	      0.60082181	      8.57888936	     10.82050476	     -4.28674727	     -9.25036674	      2.21748372	     -2.35429184	      3.67366133	     32.92473652	    -14.46460598	     -9.84313191	    -62.38813861	     -6.10911236	     20.19845813	     22.59742085	      3.95154746	      9.02063161	      4.89873998
      4.01500000	     -8.13851030	     -7.57361695	     -1.30282735	     -0.90529237	     -0.01396013	      0.60126404	      7.84663304	     10.66668016	     -3.84348905	     -8.79607350	      2.39475775	     -2.21611951	      3.63460850	     33.48635790	    -14.30938229	    -10.23525145	    -61.49084063	     -5.85795592	     20.27908869	     22.12716429	      3.86222629	      8.84273586	      5.36018728
      4.02000000	     -8.12075001	     -7.37087088	     -1.64734132	     -0.89886599	     -0.01379870	      0.60170236	      7.11599483	     10.51240870	     -3.41889951	     -8.35382821	      2.57325710	     -2.07340993	      3.61048816	     34.01992319	    -14.16290335	    -10.60750104	    -60.53693036	     -5.59853809	     20.33003288	     21.58714268	      3.75876886	      8.66733362	      5.81916670
      4.02500000	     -8.11138522	     -7.17640656	     -1.96722138	     -0.89244381	     -0.01373329	      0.60212063	      6.40802679	     10.35379917	     -3.03220385	     -7.92738527	      2.76476487	     -1.92398873	      3.61440470	     34.54660736	    -14.00910787	    -10.93684081	    -59.51852816	     -5.34635789	     20.36660920	     21.04166278	      3.67043370	      8.49428247	      6.23366394
      4.03000000	     -8.05237160	     -7.02416145	     -2.27932524	     -0.88607681	     -0.01373862	      0.60247493	      5.65592352	     10.22382662	     -2.64041365	     -7.50867814	      2.96533522	     -1.77140067	      3.64739187	     35.01114353	    -13.89205089	    -11.23491382	    -58.47272269	     -5.04289949	     20.41159339	     20.29702868	      3.51304190	      8.37197143	      6.66415070
      4.03500000	     -8.04179694	     -6.85136149	     -2.55101331	     -0.87961431	     -0.01385071	      0.60282976	      4.96279251	     10.06306836	     -2.32089164	     -7.09951720	      3.16941181	     -1.62010076	      3.71991452	     35.49502106	    -13.73527823	    -11.49994529	    -57.33900781	     -4.75961217	     20.50025848	     19.58974283	      3.43840544	      8.21292619	      6.97420151
      4.04000000	     -8.08063441	     -6.66919088	     -2.79927922	     -0.87321669	     -0.01407221	      0.60311981	      4.36021870	      9.88216068	     -2.06399732	     -6.74366984	      3.38625389	     -1.47174089	      3.78584015	     36.01280460	    -13.53424781	    -11.70408742	    -56.10275741	     -4.58860872	     20.47297079	     19.18656993	      3.41015476	      8.04535576	      7.30916619
      4.04500000	     -8.02628818	     -6.51525246	     -3.05264085	     -0.86683462	     -0.01431722	      0.60339762	      3.65837906	      9.71721433	     -1.75584409	     -6.39125064	      3.64583544	     -1.28532078	      3.90323623	     36.40113900	    -13.36955043	    -11.90594447	    -54.83110944	     -4.34829116	     20.50818178	     18.59776445	      3.27333756	      7.90222541	      7.65286102
      4.05000000	     -8.03658827	     -6.35456574	     -3.26071518	     -0.86039676	     -0.01467236	      0.60362076	      3.04598712	      9.54051763	     -1.53417996	     -6.06911276	      3.87233172	     -1.14366911	      3.99762134	     36.83036896	    -13.16367103	    -12.04789143	    -53.46700805	     -4.15192494	     20.57110345	     18.10235693	      3.22375525	      7.74793127	      7.90113380
